#N canvas 5 23 1408 826 10;
#X declare -lib mrpeach;
#X obj -136 42 import mrpeach;
#X obj -135 123 unpackOSC;
#X obj -209 238 t f;
#X obj -86 216 t f;
#X obj -135 84 udpreceive 8000;
#X floatatom -208 267 5 0 0 0 - - -;
#X floatatom -79 238 5 0 0 0 - - -;
#X obj 128 220 t f;
#X floatatom 135 242 5 0 0 0 - - -;
#X obj 24 42 t f;
#X obj 25 111 outlet;
#X floatatom 31 64 5 0 0 0 - - -;
#X obj 95 39 t f;
#X obj 96 108 outlet;
#X floatatom 102 61 5 0 0 0 - - -;
#X msg -307 478 start;
#X obj -316 579 readsf~;
#X obj -331 636 dac~;
#X obj -262 642 env~;
#X floatatom -271 692 5 0 0 0 - - -;
#X obj -314 399 bng 15 250 50 0 empty empty empty 17 7 0 10 -262144
-1 -1;
#X msg -386 446 open do.wav;
#X msg -286 520 stop;
#X msg -6 480 start;
#X obj -15 581 readsf~;
#X obj -30 638 dac~;
#X obj 39 644 env~;
#X floatatom 30 694 5 0 0 0 - - -;
#X obj -61 370 bng 15 250 50 0 empty empty empty 17 7 0 10 -262144
-1 -1;
#X msg 15 522 stop;
#X msg -85 448 open re.wav;
#X msg 353 467 start;
#X obj 344 568 readsf~;
#X obj 329 625 dac~;
#X obj 398 631 env~;
#X floatatom 389 681 5 0 0 0 - - -;
#X obj 321 375 bng 15 250 50 0 empty empty empty 17 7 0 10 -262144
-1 -1;
#X msg 374 509 stop;
#X msg 274 435 open mi.wav;
#X obj -76 320 sel 1;
#X obj 266 287 sel 1;
#X msg 605 290 440;
#X obj 633 345 osc~;
#X obj 640 518 dac~;
#X obj 761 198 vsl 15 128 0 127 0 0 empty empty empty 0 -9 0 10 -262144
-1 -1 0 1;
#X obj 629 439 *~ 1;
#X obj 398 185 t f;
#X floatatom 406 241 5 0 0 0 - - -;
#X obj -134 161 routeOSC /derecha_x /derecha_y /derecha_z /izquierda_y
;
#X obj -275 330 sel 1;
#X obj 182 266 == 3;
#X obj -257 298 == 1;
#X msg -225 371 2;
#X msg -169 362 1;
#X obj -290 142 spigot;
#X msg -261 95 1;
#X msg -225 92 0;
#X floatatom -300 192 5 0 0 0 - - -;
#X obj -165 325 del 100;
#X obj 34 293 del 100;
#X msg 27 324 1;
#X obj -85 276 == 2;
#X msg -22 355 2;
#X obj 447 302 del 100;
#X msg 440 333 1;
#X msg 391 364 2;
#X obj 562 502 t f;
#X floatatom 569 524 5 0 0 0 - - -;
#X msg 642 766 start;
#X obj 633 867 readsf~;
#X obj 618 924 dac~;
#X obj 687 930 env~;
#X floatatom 678 980 5 0 0 0 - - -;
#X obj 587 656 bng 15 250 50 0 empty empty empty 17 7 0 10 -262144
-1 -1;
#X msg 663 808 stop;
#X obj 572 606 sel 1;
#X obj 682 579 del 100;
#X msg 675 610 1;
#X msg 626 641 2;
#X obj 563 562 == 4;
#X msg 563 734 open fa.wav;
#X obj 209 622 t f;
#X floatatom 216 644 5 0 0 0 - - -;
#X msg 289 886 start;
#X obj 280 987 readsf~;
#X obj 265 1044 dac~;
#X obj 334 1050 env~;
#X floatatom 325 1100 5 0 0 0 - - -;
#X obj 234 776 bng 15 250 50 0 empty empty empty 17 7 0 10 -262144
-1 -1;
#X msg 310 928 stop;
#X obj 219 726 sel 1;
#X obj 329 699 del 100;
#X msg 322 730 1;
#X msg 273 761 2;
#X obj 210 682 == 5;
#X msg 210 854 open sol.wav;
#X obj -50 663 t f;
#X floatatom -43 685 5 0 0 0 - - -;
#X msg 30 927 start;
#X obj 21 1028 readsf~;
#X obj 6 1085 dac~;
#X obj 75 1091 env~;
#X floatatom 66 1141 5 0 0 0 - - -;
#X obj -25 817 bng 15 250 50 0 empty empty empty 17 7 0 10 -262144
-1 -1;
#X msg 51 969 stop;
#X obj -40 767 sel 1;
#X obj 70 740 del 100;
#X msg 63 771 1;
#X msg 14 802 2;
#X obj -49 723 == 6;
#X msg -49 895 open la.wav;
#X obj -330 728 t f;
#X floatatom -323 750 5 0 0 0 - - -;
#X msg -250 992 start;
#X obj -259 1093 readsf~;
#X obj -274 1150 dac~;
#X obj -205 1156 env~;
#X floatatom -214 1206 5 0 0 0 - - -;
#X obj -305 882 bng 15 250 50 0 empty empty empty 17 7 0 10 -262144
-1 -1;
#X msg -229 1034 stop;
#X obj -320 832 sel 1;
#X obj -210 805 del 100;
#X msg -217 836 1;
#X msg -266 867 2;
#X msg -329 960 open si.wav;
#X obj -329 788 == 7;
#X obj 767 456 t f;
#X floatatom 774 478 5 0 0 0 - - -;
#X msg 847 720 start;
#X obj 838 821 readsf~;
#X obj 823 878 dac~;
#X obj 892 884 env~;
#X floatatom 883 934 5 0 0 0 - - -;
#X obj 792 610 bng 15 250 50 0 empty empty empty 17 7 0 10 -262144
-1 -1;
#X msg 868 762 stop;
#X obj 777 560 sel 1;
#X obj 887 533 del 100;
#X msg 880 564 1;
#X msg 831 595 2;
#X msg 768 688 open reet.wav;
#X obj 768 516 == 20;
#X connect 1 0 48 0;
#X connect 2 0 5 0;
#X connect 3 0 6 0;
#X connect 4 0 1 0;
#X connect 5 0 51 0;
#X connect 6 0 61 0;
#X connect 7 0 8 0;
#X connect 8 0 50 0;
#X connect 9 0 11 0;
#X connect 11 0 10 0;
#X connect 12 0 14 0;
#X connect 14 0 13 0;
#X connect 15 0 16 0;
#X connect 16 0 17 0;
#X connect 16 0 18 0;
#X connect 16 0 45 0;
#X connect 18 0 19 0;
#X connect 20 0 21 0;
#X connect 20 0 15 0;
#X connect 21 0 16 0;
#X connect 22 0 16 0;
#X connect 23 0 24 0;
#X connect 24 0 25 0;
#X connect 24 0 26 0;
#X connect 24 0 45 0;
#X connect 26 0 27 0;
#X connect 28 0 30 0;
#X connect 28 0 23 0;
#X connect 29 0 24 0;
#X connect 30 0 24 0;
#X connect 31 0 32 0;
#X connect 32 0 33 0;
#X connect 32 0 34 0;
#X connect 32 0 45 0;
#X connect 34 0 35 0;
#X connect 36 0 38 0;
#X connect 36 0 31 0;
#X connect 37 0 32 0;
#X connect 38 0 32 0;
#X connect 39 0 28 0;
#X connect 39 0 59 0;
#X connect 39 0 62 0;
#X connect 40 0 36 0;
#X connect 40 0 65 0;
#X connect 40 0 63 0;
#X connect 41 0 42 0;
#X connect 42 0 45 0;
#X connect 44 0 45 1;
#X connect 45 0 43 0;
#X connect 46 0 47 0;
#X connect 47 0 44 0;
#X connect 48 0 2 0;
#X connect 48 0 54 0;
#X connect 48 0 3 0;
#X connect 48 0 7 0;
#X connect 48 0 66 0;
#X connect 48 0 81 0;
#X connect 48 0 96 0;
#X connect 48 0 111 0;
#X connect 48 0 126 0;
#X connect 48 3 46 0;
#X connect 49 0 20 0;
#X connect 49 0 52 0;
#X connect 49 0 58 0;
#X connect 50 0 40 0;
#X connect 51 0 49 0;
#X connect 52 0 49 1;
#X connect 53 0 49 1;
#X connect 54 0 57 0;
#X connect 55 0 54 1;
#X connect 56 0 54 1;
#X connect 58 0 53 0;
#X connect 59 0 60 0;
#X connect 60 0 39 1;
#X connect 61 0 39 0;
#X connect 62 0 39 1;
#X connect 63 0 64 0;
#X connect 64 0 40 1;
#X connect 65 0 40 1;
#X connect 66 0 67 0;
#X connect 67 0 79 0;
#X connect 68 0 69 0;
#X connect 69 0 70 0;
#X connect 69 0 71 0;
#X connect 69 0 45 0;
#X connect 71 0 72 0;
#X connect 73 0 80 0;
#X connect 73 0 68 0;
#X connect 74 0 69 0;
#X connect 75 0 73 0;
#X connect 75 0 76 0;
#X connect 75 0 78 0;
#X connect 76 0 77 0;
#X connect 77 0 75 1;
#X connect 78 0 75 1;
#X connect 79 0 75 0;
#X connect 80 0 69 0;
#X connect 81 0 82 0;
#X connect 82 0 94 0;
#X connect 83 0 84 0;
#X connect 84 0 85 0;
#X connect 84 0 86 0;
#X connect 84 0 45 0;
#X connect 86 0 87 0;
#X connect 88 0 95 0;
#X connect 88 0 83 0;
#X connect 89 0 84 0;
#X connect 90 0 88 0;
#X connect 90 0 91 0;
#X connect 90 0 93 0;
#X connect 91 0 92 0;
#X connect 92 0 90 1;
#X connect 93 0 90 1;
#X connect 94 0 90 0;
#X connect 95 0 84 0;
#X connect 96 0 97 0;
#X connect 97 0 109 0;
#X connect 98 0 99 0;
#X connect 99 0 100 0;
#X connect 99 0 101 0;
#X connect 99 0 45 0;
#X connect 101 0 102 0;
#X connect 103 0 110 0;
#X connect 103 0 98 0;
#X connect 104 0 99 0;
#X connect 105 0 103 0;
#X connect 105 0 106 0;
#X connect 105 0 108 0;
#X connect 106 0 107 0;
#X connect 107 0 105 1;
#X connect 108 0 105 1;
#X connect 109 0 105 0;
#X connect 110 0 99 0;
#X connect 111 0 112 0;
#X connect 112 0 125 0;
#X connect 113 0 114 0;
#X connect 114 0 115 0;
#X connect 114 0 116 0;
#X connect 114 0 45 0;
#X connect 116 0 117 0;
#X connect 118 0 124 0;
#X connect 118 0 113 0;
#X connect 119 0 114 0;
#X connect 120 0 118 0;
#X connect 120 0 121 0;
#X connect 120 0 123 0;
#X connect 121 0 122 0;
#X connect 122 0 120 1;
#X connect 123 0 120 1;
#X connect 124 0 114 0;
#X connect 125 0 120 0;
#X connect 126 0 127 0;
#X connect 127 0 140 0;
#X connect 128 0 129 0;
#X connect 129 0 130 0;
#X connect 129 0 131 0;
#X connect 129 0 45 0;
#X connect 131 0 132 0;
#X connect 133 0 139 0;
#X connect 133 0 128 0;
#X connect 134 0 129 0;
#X connect 135 0 133 0;
#X connect 135 0 136 0;
#X connect 135 0 138 0;
#X connect 136 0 137 0;
#X connect 137 0 135 1;
#X connect 138 0 135 1;
#X connect 139 0 129 0;
#X connect 140 0 135 0;
