#N canvas 129 37 1155 736 10;
#X declare -lib mrpeach;
#X obj -136 42 import mrpeach;
#X obj -135 123 unpackOSC;
#X obj -209 238 t f;
#X obj -86 216 t f;
#X obj -135 84 udpreceive 8000;
#X floatatom -208 267 5 0 0 0 - - -;
#X floatatom -79 238 5 0 0 0 - - -;
#X obj 128 220 t f;
#X floatatom 135 242 5 0 0 0 - - -;
#X obj 24 42 t f;
#X obj 25 111 outlet;
#X floatatom 31 64 5 0 0 0 - - -;
#X obj 95 39 t f;
#X obj 96 108 outlet;
#X floatatom 102 61 5 0 0 0 - - -;
#X msg -307 478 start;
#X obj -316 579 readsf~;
#X obj -331 636 dac~;
#X obj -262 642 env~;
#X floatatom -271 692 5 0 0 0 - - -;
#X obj -314 399 bng 15 250 50 0 empty empty empty 17 7 0 10 -262144
-1 -1;
#X msg -386 446 open do.wav;
#X msg -286 520 stop;
#X msg -6 480 start;
#X obj -15 581 readsf~;
#X obj -30 638 dac~;
#X obj 39 644 env~;
#X floatatom 30 694 5 0 0 0 - - -;
#X obj -31 366 bng 15 250 50 0 empty empty empty 17 7 0 10 -262144
-1 -1;
#X msg 171 493 start;
#X msg 201 527 stop;
#X obj 153 569 readsf~;
#X obj 171 625 dac~;
#X obj 240 631 env~;
#X floatatom 231 681 5 0 0 0 - - -;
#X obj 40 361 bng 15 250 50 0 empty empty empty 17 7 0 10 -262144 -1
-1;
#X msg 15 522 stop;
#X msg -85 448 open re.wav;
#X msg 109 458 open re.wav 30000;
#X msg 353 467 start;
#X obj 344 568 readsf~;
#X obj 329 625 dac~;
#X obj 398 631 env~;
#X floatatom 389 681 5 0 0 0 - - -;
#X obj 350 344 bng 15 250 50 0 empty empty empty 17 7 0 10 -262144
-1 -1;
#X msg 530 480 start;
#X msg 560 514 stop;
#X obj 512 556 readsf~;
#X obj 530 612 dac~;
#X obj 599 618 env~;
#X floatatom 590 668 5 0 0 0 - - -;
#X obj 469 389 del 1800;
#X obj 399 348 bng 15 250 50 0 empty empty empty 17 7 0 10 -262144
-1 -1;
#X msg 374 509 stop;
#X msg 274 435 open mi.wav;
#X msg 468 444 open mi.wav 30000;
#X obj -85 276 > 200;
#X obj -76 320 sel 1;
#X obj 266 287 sel 1;
#X obj 110 402 del 1800;
#X obj 182 266 > 1500;
#X msg 605 290 440;
#X obj 633 345 osc~;
#X obj 640 518 dac~;
#X obj 761 198 vsl 15 128 0 127 0 0 empty empty empty 0 -9 0 10 -262144
-1 -1 0 1;
#X obj 629 439 *~ 1;
#X obj 398 185 t f;
#X floatatom 406 241 5 0 0 0 - - -;
#X obj -134 161 routeOSC /derecha_x /derecha_y /derecha_z /izquierda_y
;
#X obj -257 298 == 2;
#X obj -275 330 sel 1;
#X obj -226 477 sel 8;
#X connect 1 0 68 0;
#X connect 2 0 5 0;
#X connect 3 0 6 0;
#X connect 4 0 1 0;
#X connect 5 0 69 0;
#X connect 6 0 56 0;
#X connect 7 0 8 0;
#X connect 8 0 60 0;
#X connect 9 0 11 0;
#X connect 11 0 10 0;
#X connect 12 0 14 0;
#X connect 14 0 13 0;
#X connect 15 0 16 0;
#X connect 16 0 17 0;
#X connect 16 0 18 0;
#X connect 16 0 65 0;
#X connect 18 0 19 0;
#X connect 20 0 21 0;
#X connect 20 0 15 0;
#X connect 21 0 16 0;
#X connect 22 0 16 0;
#X connect 23 0 24 0;
#X connect 24 0 25 0;
#X connect 24 0 26 0;
#X connect 24 0 65 0;
#X connect 26 0 27 0;
#X connect 28 0 37 0;
#X connect 28 0 23 0;
#X connect 28 0 59 0;
#X connect 29 0 31 0;
#X connect 30 0 31 0;
#X connect 31 0 32 0;
#X connect 31 0 33 0;
#X connect 31 1 38 0;
#X connect 31 1 29 0;
#X connect 33 0 34 0;
#X connect 35 0 30 0;
#X connect 35 0 36 0;
#X connect 36 0 24 0;
#X connect 37 0 24 0;
#X connect 38 0 31 0;
#X connect 39 0 40 0;
#X connect 40 0 41 0;
#X connect 40 0 42 0;
#X connect 40 0 65 0;
#X connect 42 0 43 0;
#X connect 44 0 54 0;
#X connect 44 0 39 0;
#X connect 44 0 51 0;
#X connect 45 0 47 0;
#X connect 46 0 47 0;
#X connect 47 0 48 0;
#X connect 47 0 49 0;
#X connect 47 1 55 0;
#X connect 47 1 45 0;
#X connect 49 0 50 0;
#X connect 51 0 55 0;
#X connect 51 0 45 0;
#X connect 52 0 46 0;
#X connect 52 0 53 0;
#X connect 53 0 40 0;
#X connect 54 0 40 0;
#X connect 55 0 47 0;
#X connect 56 0 57 0;
#X connect 57 0 28 0;
#X connect 58 0 54 0;
#X connect 58 0 44 0;
#X connect 59 0 38 0;
#X connect 59 0 29 0;
#X connect 60 0 58 0;
#X connect 61 0 62 0;
#X connect 62 0 65 0;
#X connect 64 0 65 1;
#X connect 65 0 63 0;
#X connect 66 0 67 0;
#X connect 67 0 64 0;
#X connect 68 0 2 0;
#X connect 68 1 3 0;
#X connect 68 2 7 0;
#X connect 68 3 66 0;
#X connect 69 0 70 0;
#X connect 70 0 20 0;
#X connect 70 0 71 0;
#X connect 71 1 5 0;
